<svg width="91" height="20" viewBox="0 0 91 20" fill="none" xmlns="http://www.w3.org/2000/svg">
<g clip-path="url(#clip0_69_920)">
<rect x="4.61114" y="0.203433" width="2.37288" height="5.05171" rx="0.169492" transform="rotate(13.0714 4.61114 0.203433)" fill="white" stroke="#383B40" stroke-width="0.338983"/>
<rect x="7.50201" y="3.0644" width="2.37288" height="4.40678" rx="0.169492" transform="rotate(-90 7.50201 3.0644)" fill="white" stroke="#383B40" stroke-width="0.338983"/>
<rect x="8.85894" y="11.1982" width="2.37288" height="3.05085" transform="rotate(-90 8.85894 11.1982)" fill="white" stroke="#383B40" stroke-width="0.338983"/>
<rect x="3.21075" y="6.23468" width="2.37288" height="6.71916" rx="0.169492" transform="rotate(13.0714 3.21075 6.23468)" fill="white" stroke="#383B40" stroke-width="0.338983"/>
<rect x="1.41827" y="13.9573" width="2.37288" height="5.37062" rx="0.169492" transform="rotate(13.0714 1.41827 13.9573)" fill="white" stroke="#383B40" stroke-width="0.338983"/>
<path d="M3.60162 18.2989C3.47753 18.2362 3.47753 18.059 3.60162 17.9963L6.57866 16.4924C6.69139 16.4354 6.82458 16.5174 6.82458 16.6437V19.6516C6.82458 19.7779 6.69139 19.8598 6.57866 19.8029L3.60162 18.2989Z" fill="white" stroke="#383B40" stroke-width="0.338983"/>
<path d="M5.6358 10.1632C5.51171 10.1005 5.51171 9.92329 5.6358 9.8606L8.61284 8.35666C8.72557 8.29971 8.85875 8.38164 8.85875 8.50794V11.5158C8.85875 11.6421 8.72557 11.7241 8.61284 11.6671L5.6358 10.1632Z" fill="white" stroke="#383B40" stroke-width="0.338983"/>
<rect x="6.82476" y="19.3339" width="2.37288" height="5.08475" rx="0.169492" transform="rotate(-90 6.82476 19.3339)" fill="white" stroke="#383B40" stroke-width="0.338983"/>
<mask id="path-9-inside-1_69_920" fill="white">
<path d="M11.5776 8.65993C12.312 8.66045 13.0391 8.80113 13.7174 9.07394C14.3957 9.34675 15.012 9.74633 15.5309 10.2499C16.0498 10.7534 16.4614 11.3511 16.7419 12.0088C17.0225 12.6664 17.1667 13.3711 17.1661 14.0828C17.1656 14.7944 17.0205 15.4989 16.739 16.1562C16.4575 16.8134 16.0451 17.4105 15.5255 17.9133C15.0058 18.4161 14.389 18.8148 13.7103 19.0867C13.0316 19.3585 12.3043 19.4982 11.5699 19.4976L11.5718 16.7924C11.9396 16.7926 12.3038 16.7227 12.6437 16.5866C12.9836 16.4505 13.2924 16.2508 13.5527 15.999C13.8129 15.7472 14.0194 15.4482 14.1604 15.1191C14.3013 14.7899 14.374 14.4371 14.3743 14.0808C14.3745 13.7244 14.3023 13.3715 14.1618 13.0422C14.0213 12.7128 13.8153 12.4136 13.5554 12.1614C13.2955 11.9092 12.9869 11.7091 12.6473 11.5725C12.3076 11.4359 11.9435 11.3654 11.5757 11.3652L11.5776 8.65993Z"/>
</mask>
<path d="M11.5776 8.65993C12.312 8.66045 13.0391 8.80113 13.7174 9.07394C14.3957 9.34675 15.012 9.74633 15.5309 10.2499C16.0498 10.7534 16.4614 11.3511 16.7419 12.0088C17.0225 12.6664 17.1667 13.3711 17.1661 14.0828C17.1656 14.7944 17.0205 15.4989 16.739 16.1562C16.4575 16.8134 16.0451 17.4105 15.5255 17.9133C15.0058 18.4161 14.389 18.8148 13.7103 19.0867C13.0316 19.3585 12.3043 19.4982 11.5699 19.4976L11.5718 16.7924C11.9396 16.7926 12.3038 16.7227 12.6437 16.5866C12.9836 16.4505 13.2924 16.2508 13.5527 15.999C13.8129 15.7472 14.0194 15.4482 14.1604 15.1191C14.3013 14.7899 14.374 14.4371 14.3743 14.0808C14.3745 13.7244 14.3023 13.3715 14.1618 13.0422C14.0213 12.7128 13.8153 12.4136 13.5554 12.1614C13.2955 11.9092 12.9869 11.7091 12.6473 11.5725C12.3076 11.4359 11.9435 11.3654 11.5757 11.3652L11.5776 8.65993Z" fill="white" stroke="#383B40" stroke-width="0.677966" mask="url(#path-9-inside-1_69_920)"/>
<mask id="path-10-inside-2_69_920" fill="white">
<path d="M11.5776 0.524189C12.312 0.524712 13.0391 0.665392 13.7174 0.938197C14.3957 1.211 15.012 1.61059 15.5309 2.11415C16.0498 2.6177 16.4614 3.21537 16.7419 3.87301C17.0225 4.53066 17.1667 5.23541 17.1661 5.94702C17.1656 6.65863 17.0205 7.36318 16.739 8.02042C16.4575 8.67767 16.0451 9.27474 15.5255 9.77756C15.0058 10.2804 14.389 10.6791 13.7103 10.9509C13.0316 11.2228 12.3043 11.3624 11.5699 11.3619L11.5718 8.65664C11.9396 8.6569 12.3038 8.58697 12.6437 8.45085C12.9836 8.31472 13.2924 8.11505 13.5527 7.86326C13.8129 7.61146 14.0194 7.31246 14.1604 6.98333C14.3013 6.6542 14.374 6.30139 14.3743 5.94503C14.3745 5.58868 14.3023 5.23576 14.1618 4.90643C14.0213 4.5771 13.8153 4.27781 13.5554 4.02564C13.2955 3.77348 12.9869 3.57337 12.6473 3.43676C12.3076 3.30015 11.9435 3.2297 11.5757 3.22944L11.5776 0.524189Z"/>
</mask>
<path d="M11.5776 0.524189C12.312 0.524712 13.0391 0.665392 13.7174 0.938197C14.3957 1.211 15.012 1.61059 15.5309 2.11415C16.0498 2.6177 16.4614 3.21537 16.7419 3.87301C17.0225 4.53066 17.1667 5.23541 17.1661 5.94702C17.1656 6.65863 17.0205 7.36318 16.739 8.02042C16.4575 8.67767 16.0451 9.27474 15.5255 9.77756C15.0058 10.2804 14.389 10.6791 13.7103 10.9509C13.0316 11.2228 12.3043 11.3624 11.5699 11.3619L11.5718 8.65664C11.9396 8.6569 12.3038 8.58697 12.6437 8.45085C12.9836 8.31472 13.2924 8.11505 13.5527 7.86326C13.8129 7.61146 14.0194 7.31246 14.1604 6.98333C14.3013 6.6542 14.374 6.30139 14.3743 5.94503C14.3745 5.58868 14.3023 5.23576 14.1618 4.90643C14.0213 4.5771 13.8153 4.27781 13.5554 4.02564C13.2955 3.77348 12.9869 3.57337 12.6473 3.43676C12.3076 3.30015 11.9435 3.2297 11.5757 3.22944L11.5776 0.524189Z" fill="white" stroke="#383B40" stroke-width="0.677966" mask="url(#path-10-inside-2_69_920)"/>
</g>
<path d="M19.5707 19V5.95593H22.9572V19H19.5707ZM19.2196 2.87051C19.2196 1.79186 20.0975 0.888811 21.2514 0.888811C22.4304 0.888811 23.2833 1.79186 23.2833 2.87051C23.2833 3.99932 22.4304 4.87729 21.2514 4.87729C20.0975 4.87729 19.2196 3.97424 19.2196 2.87051ZM29.8339 19C27.2502 19 25.8455 17.7959 25.8455 14.9614V8.84068H24.0143V5.95593H25.8455V3.32203L29.2319 2.97085V5.95593H31.9912V8.84068H29.2319V14.7858C29.2319 15.6136 29.6333 15.9898 30.2855 15.9898H31.6902V19H29.8339ZM37.398 19.3261C35.1905 19.3261 33.4095 18.5736 31.9797 17.0434L34.2624 14.9614C35.2156 16.04 36.219 16.5668 37.3227 16.5668C38.4766 16.5668 39.1288 15.9898 39.1288 15.2122C39.1288 14.5349 38.8027 14.1586 36.7458 13.682C33.259 12.8542 32.7322 11.2739 32.7322 9.6183C32.7322 7.33559 34.5383 5.62983 37.5987 5.62983C39.7058 5.62983 41.1105 6.15661 42.44 7.88746L39.9817 9.76881C39.3546 8.76542 38.5519 8.36407 37.6739 8.36407C36.7458 8.36407 36.0434 8.71525 36.0434 9.51796C36.0434 9.96949 36.2441 10.3708 37.7993 10.7722C41.5871 11.7505 42.4651 13.1553 42.4651 15.1119C42.4651 17.52 40.2827 19.3261 37.398 19.3261ZM49.9382 19.3261C46.2006 19.3261 43.2155 16.2658 43.2155 12.478C43.2155 8.69017 46.1253 5.65491 50.1138 5.62983C52.4969 5.60474 54.4284 6.53288 55.5321 8.06305L52.9233 10.1953C52.3213 9.2922 51.3179 8.71525 50.164 8.71525C48.0067 8.71525 46.6019 10.4461 46.6019 12.478C46.6019 14.5098 48.0819 16.2407 50.2392 16.2407C51.5436 16.2407 52.3965 15.5885 53.0738 14.6854L55.5321 16.8176C54.303 18.398 52.4969 19.3261 49.9382 19.3261ZM61.9164 19.3261C58.3293 19.3261 55.4696 16.2908 55.4696 12.5281C55.4696 8.76542 58.3293 5.68 61.9164 5.68C64.174 5.68 65.353 6.60813 66.0554 8.01288V5.95593H69.4167V19H66.1306V16.8678C65.4282 18.3478 64.2493 19.3261 61.9164 19.3261ZM58.856 12.5031C58.856 14.4847 60.311 16.2658 62.4682 16.2658C64.7008 16.2658 66.1306 14.56 66.1306 12.5281C66.1306 10.4963 64.7008 8.74034 62.4682 8.74034C60.311 8.74034 58.856 10.4712 58.856 12.5031ZM71.361 19V0.688134H74.7474V19H71.361ZM82.9286 19.3261C78.89 19.3261 76.1808 16.2658 76.1808 12.5031C76.1808 8.74034 79.0154 5.62983 82.9286 5.62983C86.8418 5.62983 89.551 8.74034 89.551 12.5031C89.551 12.8793 89.5259 13.2807 89.4506 13.7071H79.6927C80.0689 15.2373 81.2228 16.3159 82.9286 16.3159C84.3835 16.3159 85.5123 15.5634 86.1144 14.56L88.7483 16.5417C87.6947 18.1722 85.5123 19.3261 82.9286 19.3261ZM79.6927 11.1736H86.1394C85.7632 9.71864 84.534 8.53966 82.8784 8.53966C81.273 8.53966 80.0689 9.6183 79.6927 11.1736Z" fill="white"/>
<defs>
<clipPath id="clip0_69_920">
<rect width="17.2881" height="20" fill="white"/>
</clipPath>
</defs>
</svg>
